<svg height="512pt" viewBox="0 -26 512.00003 512" width="512pt" xmlns="http://www.w3.org/2000/svg"><path d="m25.601562 298.605469h3.171876c1.765624.039062 3.480468.605469 4.925781 1.621093 26.527343 19.664063 58.296875 31 91.28125 32.574219 1.816406 0 2.847656-.070312 3.019531-.085937h55.464844c16.496094 0 29.867187-13.371094 29.867187-29.867188-.03125-5.003906-1.339843-9.917968-3.796875-14.277344 8.546875-2.597656 15.449219-8.945312 18.761719-17.242187 3.308594-8.300781 2.667969-17.652344-1.746094-25.421875 12.402344-3.855469 20.867188-15.308594 20.921875-28.292969.050782-12.988281-8.320312-24.507812-20.691406-28.464843 2.382812-4.359376 3.625-9.246094 3.617188-14.214844 0-7.921875-3.144532-15.519532-8.746094-21.121094-5.601563-5.597656-13.199219-8.746094-21.117188-8.746094h-29.867187c0-18.851562-15.285157-34.132812-34.132813-34.132812h-46.933594c-18.875-1.035156-37.054687 7.253906-48.640624 22.1875-1.617188 2.140625-4.144532 3.402344-6.828126 3.414062h-8.53125c-14.140624 0-25.601562 11.460938-25.601562 25.597656v110.933594c.03125 14.117188 11.484375 25.539063 25.601562 25.539063zm-8.535156-136.472657c0-4.710937 3.820313-8.53125 8.535156-8.53125h8.53125c8.269532-.0625 16.015626-4.066406 20.847657-10.777343 8.515625-10.183594 21.375-15.691407 34.621093-14.824219h46.933594c9.425782 0 17.066406 7.640625 17.066406 17.066406h-42.667968c-4.714844 0-8.535156 3.820313-8.535156 8.535156 0 4.710938 3.820312 8.53125 8.535156 8.53125h89.601562c4.570313 0 8.796875 2.441407 11.082032 6.402344 2.289062 3.957032 2.289062 8.835938 0 12.796875-2.285157 3.960938-6.511719 6.402344-11.082032 6.402344h-17.070312c-4.710938 0-8.53125 3.820313-8.53125 8.53125 0 4.714844 3.820312 8.535156 8.53125 8.535156h34.136718c7.066407 0 12.796876 5.730469 12.796876 12.800781 0 7.066407-5.730469 12.796876-12.796876 12.796876h-29.867187c-4.714844 0-8.535156 3.820312-8.535156 8.535156 0 4.710937 3.820312 8.53125 8.535156 8.53125h12.507813c.101562 0 .1875.0625.292968.0625 7.066406 0 12.796875 5.730468 12.796875 12.800781 0 7.066406-5.730469 12.796875-12.796875 12.796875h-16.710937c-.117188 0-.238281 0-.367188 0-.125 0-.117187 0-.179687 0h-29.675782c-4.714843 0-8.535156 3.820312-8.535156 8.535156 0 4.710938 3.820313 8.53125 8.535156 8.53125h30.25c6.742188.515625 11.921876 6.191406 11.824219 12.953125-.101562 6.761719-5.445312 12.28125-12.199219 12.597657h-56.074218c-.359375 0-38.1875 2.148437-84-29.507813-4.289063-2.996094-9.386719-4.617187-14.621094-4.644531h-3.179688c-4.714843 0-8.535156-3.820313-8.535156-8.53125zm0 0"/><path d="m42.667969 196.265625c4.710937 0 8.53125-3.820313 8.53125-8.53125v-8.535156c0-4.710938-3.820313-8.53125-8.53125-8.53125-4.714844 0-8.535157 3.820312-8.535157 8.53125v8.535156c0 4.710937 3.820313 8.53125 8.535157 8.53125zm0 0"/><path d="m42.667969 264.535156c4.710937 0 8.53125-3.824218 8.53125-8.535156v-34.132812c0-4.714844-3.820313-8.535157-8.53125-8.535157-4.714844 0-8.535157 3.820313-8.535157 8.535157v34.132812c0 4.710938 3.820313 8.535156 8.535157 8.535156zm0 0"/><path d="m486.398438 136.535156h-8.53125c-2.46875.027344-4.824219-1.023437-6.453126-2.878906-11.554687-15.234375-29.917968-23.746094-49.015624-22.722656h-46.933594c-18.847656 0-34.132813 15.28125-34.132813 34.132812h-29.867187c-16.492188 0-29.863282 13.371094-29.863282 29.867188-.011718 4.972656 1.234376 9.867187 3.617188 14.234375-12.371094 3.957031-20.742188 15.476562-20.691406 28.460937.054687 12.984375 8.519531 24.4375 20.921875 28.292969-4.414063 7.769531-5.054688 17.125-1.746094 25.421875 3.3125 8.300781 10.214844 14.644531 18.761719 17.246094-2.460938 4.359375-3.765625 9.277344-3.796875 14.285156 0 16.492188 13.371093 29.867188 29.867187 29.867188h54.824219c.265625 0 1.417969.101562 3.355469.101562 33.085937-1.523438 64.972656-12.875 91.578125-32.605469 1.445312-1.023437 3.164062-1.59375 4.933593-1.632812h3.171876c14.140624 0 25.601562-11.460938 25.601562-25.597657v-110.875c0-14.136718-11.460938-25.597656-25.601562-25.597656zm8.535156 136.53125c0 4.714844-3.820313 8.535156-8.535156 8.535156h-3.171876c-5.234374.023438-10.339843 1.648438-14.628906 4.648438-45.796875 31.582031-83.617187 29.484375-84.597656 29.414062h-55.464844c-6.707031-.378906-11.972656-5.875-12.074218-12.589843-.097657-6.714844 5.007812-12.363281 11.695312-12.941407h30.253906c4.710938 0 8.53125-3.820312 8.53125-8.53125 0-4.714843-3.820312-8.535156-8.53125-8.535156h-29.679687c-.0625 0-.113281 0-.179688 0-.070312 0-.246093 0-.375 0h-16.710937c-7.066406 0-12.796875-5.730468-12.796875-12.800781 0-7.066406 5.730469-12.800781 12.796875-12.800781.105468 0 .191406-.050782.292968-.058594h12.507813c4.714844 0 8.535156-3.820312 8.535156-8.53125 0-4.714844-3.820312-8.535156-8.535156-8.535156h-29.867187c-7.066407 0-12.796876-5.730469-12.796876-12.800782 0-7.066406 5.730469-12.796874 12.796876-12.796874h34.136718c4.710938 0 8.53125-3.824219 8.53125-8.535157 0-4.714843-3.820312-8.535156-8.53125-8.535156h-17.070312c-7.066406 0-12.796875-5.730469-12.796875-12.796875 0-7.070312 5.730469-12.800781 12.796875-12.800781h89.601562c4.714844 0 8.535156-3.820313 8.535156-8.535157 0-4.710937-3.820312-8.53125-8.535156-8.53125h-42.667968c0-9.425781 7.640624-17.066406 17.066406-17.066406h46.933594c13.480468-.953125 26.566406 4.792969 34.988281 15.359375 4.828125 6.457031 12.414062 10.273438 20.480469 10.300781h8.53125c4.714843 0 8.535156 3.820313 8.535156 8.53125zm0 0"/><path d="m469.332031 170.667969c-4.710937 0-8.53125 3.820312-8.53125 8.53125v8.535156c0 4.710937 3.820313 8.53125 8.53125 8.53125 4.714844 0 8.535157-3.820313 8.535157-8.53125v-8.535156c0-4.710938-3.820313-8.53125-8.535157-8.53125zm0 0"/><path d="m469.332031 213.332031c-4.710937 0-8.53125 3.820313-8.53125 8.535157v34.132812c0 4.710938 3.820313 8.535156 8.53125 8.535156 4.714844 0 8.535157-3.824218 8.535157-8.535156v-34.132812c0-4.714844-3.820313-8.535157-8.535157-8.535157zm0 0"/><path d="m256 93.867188c4.710938 0 8.535156-3.820313 8.535156-8.535157v-76.796875c0-4.714844-3.824218-8.535156-8.535156-8.535156s-8.535156 3.820312-8.535156 8.535156v76.796875c0 4.714844 3.824218 8.535157 8.535156 8.535157zm0 0"/><path d="m209.066406 106.445312c3.046875-.003906 5.863282-1.632812 7.382813-4.269531 1.523437-2.640625 1.523437-5.890625 0-8.53125l-38.402344-66.507812c-1.511719-2.664063-4.335937-4.308594-7.398437-4.316407-3.0625-.007812-5.894532 1.628907-7.417969 4.28125-1.523438 2.65625-1.511719 5.925782.039062 8.566407l38.398438 66.511719c1.527343 2.640624 4.347656 4.269531 7.398437 4.265624zm0 0"/><path d="m302.933594 106.445312c3.050781.003907 5.871094-1.625 7.398437-4.265624l38.398438-66.511719c1.550781-2.640625 1.5625-5.910157.039062-8.566407-1.523437-2.652343-4.355469-4.289062-7.417969-4.28125-3.0625.007813-5.886718 1.652344-7.398437 4.316407l-38.402344 66.507812c-1.523437 2.640625-1.523437 5.890625 0 8.53125 1.519531 2.636719 4.335938 4.265625 7.382813 4.269531zm0 0"/><path d="m247.464844 452.265625c0 4.714844 3.824218 8.535156 8.535156 8.535156s8.535156-3.820312 8.535156-8.535156v-76.800781c0-4.710938-3.824218-8.53125-8.535156-8.53125s-8.535156 3.820312-8.535156 8.53125zm0 0"/><path d="m341.332031 437.929688c3.046875-.003907 5.863281-1.628907 7.386719-4.269532 1.519531-2.640625 1.519531-5.890625-.003906-8.53125l-38.398438-66.507812c-2.375-4.046875-7.566406-5.417969-11.628906-3.074219-4.0625 2.347656-5.472656 7.53125-3.152344 11.609375l38.398438 66.507812c1.527344 2.644532 4.347656 4.269532 7.398437 4.265626zm0 0"/><path d="m201.675781 358.621094-38.398437 66.507812c-1.550782 2.644532-1.5625 5.914063-.039063 8.566406 1.527344 2.65625 4.355469 4.292969 7.417969 4.285157 3.0625-.007813 5.886719-1.65625 7.398438-4.316407l38.402343-66.507812c2.316407-4.078125.910157-9.261719-3.152343-11.609375-4.0625-2.34375-9.253907-.972656-11.628907 3.074219zm0 0"/></svg>