<?xml version="1.0" encoding="iso-8859-1"?>
<!-- Generator: Adobe Illustrator 16.0.0, SVG Export Plug-In . SVG Version: 6.00 Build 0)  -->
<!DOCTYPE svg PUBLIC "-//W3C//DTD SVG 1.1//EN" "http://www.w3.org/Graphics/SVG/1.1/DTD/svg11.dtd">
<svg version="1.1" id="Capa_1" xmlns="http://www.w3.org/2000/svg" xmlns:xlink="http://www.w3.org/1999/xlink" x="0px" y="0px"
	 width="596.598px" height="596.598px" viewBox="0 0 596.598 596.598" style="enable-background:new 0 0 596.598 596.598;"
	 xml:space="preserve">
<g>
	<path d="M345.973,96.288c0,0,61.185,12.393,98.6,55.415c37.416,43.013,36.145,46.983,51.117,88.628
		c4.998,13.602,14.956,12.366,18.699,11.729c3.743-0.622,14.955-6.233,8.413-25.554c-6.541-19.335-35.471-123.446-164.69-157.109
		c-13.302-2.503-18.208,1.872-20.316,7.946C335.688,83.427,337.232,94.071,345.973,96.288L345.973,96.288z"/>
	<path d="M236.102,96.288c0,0-61.166,12.393-98.573,55.415c-37.407,43.013-36.144,46.983-51.113,88.628
		c-4.997,13.602-14.96,12.366-18.703,11.729c-3.739-0.622-14.987-6.233-8.445-25.554c6.546-19.335,35.448-123.446,164.695-157.109
		c13.302-2.503,18.208,1.872,20.316,7.946C246.378,83.427,244.86,94.071,236.102,96.288L236.102,96.288z"/>
	<path d="M236.374,505.793c0,0-61.239-12.13-98.809-54.987c-37.583-42.858-36.357-46.847-51.494-88.42
		c-5.052-13.574-15.005-12.284-18.73-11.647c-3.739,0.627-14.96,6.287-8.336,25.581c6.619,19.316,35.962,123.286,165.359,156.423
		c13.32,2.444,18.199-1.963,20.271-8.032C246.705,518.604,245.133,507.965,236.374,505.793L236.374,505.793z"/>
	<path d="M346.228,506.521c0,0,61.13-12.63,98.363-55.815c37.234-43.176,35.944-47.164,50.735-88.864
		c4.943-13.619,14.901-12.402,18.681-11.793c3.726,0.59,14.974,6.142,8.522,25.526c-6.487,19.335-34.962,123.559-164.055,157.785
		c-13.283,2.535-18.208-1.799-20.353-7.868C336.015,519.422,337.505,508.773,346.228,506.521L346.228,506.521z"/>
	<path d="M349.28,194.138c0,0,30.401,11.453,48.627,49.327c4.907,8.418,12.866,11.221,21.279,7.015
		c8.396-4.203,8.178-14.465,6.306-18.208c-1.871-3.766-18.227-43.744-63.365-65.014c-8.395-2.812-14.482,3.97-16.354,5.842
		C343.883,174.962,340.376,186.424,349.28,194.138L349.28,194.138z"/>
	<path d="M235.602,194.138c0,0-30.388,11.453-48.628,49.327c-4.916,8.418-12.856,11.221-21.279,7.015
		c-8.422-4.203-8.177-14.465-6.314-18.208c1.872-3.766,18.231-43.744,63.356-65.014c8.422-2.812,14.501,3.97,16.364,5.842
		C240.972,174.962,244.479,186.424,235.602,194.138L235.602,194.138z"/>
	<path d="M235.602,401.806c0,0-30.388-11.458-48.628-49.314c-4.916-8.413-12.856-11.221-21.279-7.023
		c-8.422,4.216-8.177,14.465-6.314,18.227c1.872,3.743,18.231,43.717,63.356,64.996c8.422,2.799,14.501-3.988,16.364-5.86
		C240.972,420.968,244.479,409.52,235.602,401.806L235.602,401.806z"/>
	<g>
		<path d="M349.28,401.814c0,0,30.401-11.448,48.627-49.351c4.907-8.404,12.866-11.212,21.279-6.996
			c8.396,4.198,8.178,14.475,6.306,18.209c-1.871,3.779-18.227,43.753-63.365,65.014c-8.395,2.816-14.482-3.971-16.354-5.842
			C343.901,420.985,340.376,409.528,349.28,401.814L349.28,401.814z"/>
		<path d="M581.66,279.073H310.006V14.96c0-8.268-6.705-14.96-14.955-14.96h-8.422c-8.25,0-14.956,6.692-14.956,14.96v264.104H14.96
			c-8.268,0-14.96,6.706-14.96,14.96v8.409c0,8.259,6.692,14.959,14.96,14.959h256.695v264.24c0,8.26,6.714,14.965,14.964,14.965
			h8.422c8.25,0,14.956-6.715,14.956-14.965V317.411h271.646c8.268,0,14.955-6.706,14.955-14.96v-8.418
			C596.616,285.77,589.929,279.073,581.66,279.073L581.66,279.073z"/>
	</g>
</g>
<g>
</g>
<g>
</g>
<g>
</g>
<g>
</g>
<g>
</g>
<g>
</g>
<g>
</g>
<g>
</g>
<g>
</g>
<g>
</g>
<g>
</g>
<g>
</g>
<g>
</g>
<g>
</g>
<g>
</g>
</svg>
